# xmcd
#
# Track frame offsets: 
#        150
#        65170
#        90564
#        93606
#        104752
#        106751
#        107576
#        108152
#        109529
#        123223
#        135690
#        152556
#        165106
#        181167
#        252752
#        254602
#        256782
#        275380
#        295417
#        312129
#        333600
#        340850
#
# Disc length: 4608 seconds
#
# Revision: 0
# Processed by: cddbd v1.5.2PL0 Copyright (c) Steve Scherf et al.
# Submitted via: ExactAudioCopy v0.95b4
#
DISCID=2f11fe16
DTITLE=The Beatles  - AB  Road - Complete Purple Chick Set v1.1 Jan.06
DTITLE=Various Artist - D3  FLAC
DYEAR=1900
DGENRE=
TTITLE0=Dialogue
TTITLE1=Improvisation 6.50
TTITLE2=Improvisation 6.51
TTITLE3=The Tracks Of My Tears 6.52
TTITLE4=Improvisation 6.53
TTITLE5=Improvisation 6.54
TTITLE6=Improvisation 6.55
TTITLE7=Improvisation 6.56
TTITLE8=Dizzy Miss Lizzie 6.57
TTITLE9=Money 6.58
TTITLE10=Fools Like Me 6.59
TTITLE11=Sure To Fall 6.60
TTITLE12=Right String, Wrong Yo-Yo 6.61
TTITLE13=Don't Let Me Down 6.62
TTITLE14=Don't Let Me Down 6.63
TTITLE15=Don't Let Me Down 6.64
TTITLE16=Don't Let Me Down 6.65
TTITLE17=Don't Let Me Down 6.66
TTITLE18=Don't Let Me Down 6.67
TTITLE19=Don't Let Me Down 6.68
TTITLE20=Don't Let Me Down 6.69
TTITLE21=Don't Let Me Down 6.70
EXTD=
EXTT0=
EXTT1=
EXTT2=
EXTT3=
EXTT4=
EXTT5=
EXTT6=
EXTT7=
EXTT8=
EXTT9=
EXTT10=
EXTT11=
EXTT12=
EXTT13=
EXTT14=
EXTT15=
EXTT16=
EXTT17=
EXTT18=
EXTT19=
EXTT20=
EXTT21=
PLAYORDER=
